<mxfile host="app.diagrams.net" agent="Mozilla/5.0 (Windows NT 10.0; Win64; x64) AppleWebKit/537.36 (KHTML, like Gecko) Chrome/136.0.0.0 Safari/537.36" version="27.0.4">
  <diagram name="Page-1" id="WdANbCdMsuXmUIpIXudU">
    <mxGraphModel dx="754" dy="1376" grid="1" gridSize="10" guides="1" tooltips="1" connect="1" arrows="1" fold="1" page="1" pageScale="1" pageWidth="1169" pageHeight="827" math="0" shadow="0">
      <root>
        <mxCell id="0" />
        <mxCell id="1" parent="0" />
        <mxCell id="5bcC0TVyVtwMOTV-ohNZ-1" value="Tenant" style="shape=umlActor;verticalLabelPosition=bottom;verticalAlign=top;html=1;outlineConnect=0;" parent="1" vertex="1">
          <mxGeometry x="50" y="50" width="30" height="60" as="geometry" />
        </mxCell>
        <mxCell id="5bcC0TVyVtwMOTV-ohNZ-2" value="" style="shape=umlBoundary;whiteSpace=wrap;html=1;" parent="1" vertex="1">
          <mxGeometry x="190" y="30" width="100" height="80" as="geometry" />
        </mxCell>
        <mxCell id="5bcC0TVyVtwMOTV-ohNZ-3" value="" style="endArrow=none;html=1;rounded=0;exitX=1;exitY=0.3333333333333333;exitDx=0;exitDy=0;exitPerimeter=0;entryX=-0.01;entryY=0.5;entryDx=0;entryDy=0;entryPerimeter=0;" parent="1" source="5bcC0TVyVtwMOTV-ohNZ-1" target="5bcC0TVyVtwMOTV-ohNZ-2" edge="1">
          <mxGeometry width="50" height="50" relative="1" as="geometry">
            <mxPoint x="340" y="410" as="sourcePoint" />
            <mxPoint x="390" y="360" as="targetPoint" />
          </mxGeometry>
        </mxCell>
        <mxCell id="5bcC0TVyVtwMOTV-ohNZ-4" value="Tenant&amp;nbsp;&lt;div&gt;Home Screen&lt;/div&gt;" style="text;html=1;align=center;verticalAlign=middle;resizable=0;points=[];autosize=1;strokeColor=none;fillColor=none;" parent="1" vertex="1">
          <mxGeometry x="200" y="-5" width="100" height="40" as="geometry" />
        </mxCell>
        <mxCell id="5bcC0TVyVtwMOTV-ohNZ-5" value="Load" style="ellipse;shape=umlControl;whiteSpace=wrap;html=1;" parent="1" vertex="1">
          <mxGeometry x="670" y="30" width="70" height="80" as="geometry" />
        </mxCell>
        <mxCell id="5bcC0TVyVtwMOTV-ohNZ-6" value="" style="endArrow=none;html=1;rounded=0;exitX=1;exitY=0.475;exitDx=0;exitDy=0;exitPerimeter=0;entryX=0.01;entryY=0.481;entryDx=0;entryDy=0;entryPerimeter=0;" parent="1" source="5bcC0TVyVtwMOTV-ohNZ-2" target="5bcC0TVyVtwMOTV-ohNZ-5" edge="1">
          <mxGeometry width="50" height="50" relative="1" as="geometry">
            <mxPoint x="340" y="350" as="sourcePoint" />
            <mxPoint x="390" y="300" as="targetPoint" />
          </mxGeometry>
        </mxCell>
        <mxCell id="5bcC0TVyVtwMOTV-ohNZ-7" value="" style="shape=umlBoundary;whiteSpace=wrap;html=1;" parent="1" vertex="1">
          <mxGeometry x="190" y="170" width="100" height="80" as="geometry" />
        </mxCell>
        <mxCell id="5bcC0TVyVtwMOTV-ohNZ-8" value="Reservation Screen" style="text;html=1;align=center;verticalAlign=middle;resizable=0;points=[];autosize=1;strokeColor=none;fillColor=none;" parent="1" vertex="1">
          <mxGeometry x="185" y="138" width="130" height="30" as="geometry" />
        </mxCell>
        <mxCell id="5bcC0TVyVtwMOTV-ohNZ-9" value="" style="endArrow=none;html=1;rounded=0;exitX=0.96;exitY=0.263;exitDx=0;exitDy=0;exitPerimeter=0;entryX=0.029;entryY=0.725;entryDx=0;entryDy=0;entryPerimeter=0;" parent="1" source="5bcC0TVyVtwMOTV-ohNZ-7" target="bhaeH_KAVxia1MoYE9fJ-1" edge="1">
          <mxGeometry width="50" height="50" relative="1" as="geometry">
            <mxPoint x="320" y="330" as="sourcePoint" />
            <mxPoint x="460" y="120" as="targetPoint" />
          </mxGeometry>
        </mxCell>
        <mxCell id="5bcC0TVyVtwMOTV-ohNZ-10" value="Selects Reserve" style="text;html=1;align=center;verticalAlign=middle;resizable=0;points=[];autosize=1;strokeColor=none;fillColor=none;" parent="1" vertex="1">
          <mxGeometry x="75" y="20" width="110" height="30" as="geometry" />
        </mxCell>
        <mxCell id="5bcC0TVyVtwMOTV-ohNZ-11" value="" style="endArrow=none;html=1;rounded=0;exitX=1;exitY=0.3333333333333333;exitDx=0;exitDy=0;exitPerimeter=0;entryX=0.003;entryY=0.504;entryDx=0;entryDy=0;entryPerimeter=0;" parent="1" source="5bcC0TVyVtwMOTV-ohNZ-1" target="5bcC0TVyVtwMOTV-ohNZ-7" edge="1">
          <mxGeometry width="50" height="50" relative="1" as="geometry">
            <mxPoint x="90" y="90" as="sourcePoint" />
            <mxPoint x="370" y="280" as="targetPoint" />
          </mxGeometry>
        </mxCell>
        <mxCell id="5bcC0TVyVtwMOTV-ohNZ-12" value="Completes the form" style="text;html=1;align=center;verticalAlign=middle;resizable=0;points=[];autosize=1;strokeColor=none;fillColor=none;rotation=52;" parent="1" vertex="1">
          <mxGeometry x="85" y="115" width="130" height="30" as="geometry" />
        </mxCell>
        <mxCell id="5bcC0TVyVtwMOTV-ohNZ-14" value="Add" style="ellipse;shape=umlControl;whiteSpace=wrap;html=1;" parent="1" vertex="1">
          <mxGeometry x="530" y="300" width="70" height="80" as="geometry" />
        </mxCell>
        <mxCell id="5bcC0TVyVtwMOTV-ohNZ-16" value="Reservation List" style="ellipse;shape=umlEntity;whiteSpace=wrap;html=1;" parent="1" vertex="1">
          <mxGeometry x="670" y="300" width="80" height="80" as="geometry" />
        </mxCell>
        <mxCell id="5bcC0TVyVtwMOTV-ohNZ-18" value="Display" style="ellipse;shape=umlControl;whiteSpace=wrap;html=1;" parent="1" vertex="1">
          <mxGeometry x="350" y="460" width="70" height="80" as="geometry" />
        </mxCell>
        <mxCell id="5bcC0TVyVtwMOTV-ohNZ-19" value="Remove&lt;div&gt;points&lt;/div&gt;" style="ellipse;shape=umlControl;whiteSpace=wrap;html=1;" parent="1" vertex="1">
          <mxGeometry x="530" y="460" width="70" height="80" as="geometry" />
        </mxCell>
        <mxCell id="5bcC0TVyVtwMOTV-ohNZ-21" value="" style="shape=umlBoundary;whiteSpace=wrap;html=1;" parent="1" vertex="1">
          <mxGeometry x="190" y="460" width="100" height="80" as="geometry" />
        </mxCell>
        <mxCell id="5bcC0TVyVtwMOTV-ohNZ-22" value="" style="endArrow=none;html=1;rounded=0;exitX=0.995;exitY=0.556;exitDx=0;exitDy=0;exitPerimeter=0;entryX=-0.01;entryY=0.558;entryDx=0;entryDy=0;entryPerimeter=0;" parent="1" source="5bcC0TVyVtwMOTV-ohNZ-21" target="5bcC0TVyVtwMOTV-ohNZ-18" edge="1">
          <mxGeometry width="50" height="50" relative="1" as="geometry">
            <mxPoint x="310" y="430" as="sourcePoint" />
            <mxPoint x="367" y="444" as="targetPoint" />
          </mxGeometry>
        </mxCell>
        <mxCell id="5bcC0TVyVtwMOTV-ohNZ-23" value="Check Reservation Screen" style="text;html=1;align=center;verticalAlign=middle;resizable=0;points=[];autosize=1;strokeColor=none;fillColor=none;" parent="1" vertex="1">
          <mxGeometry x="165" y="429.99999999999994" width="170" height="30" as="geometry" />
        </mxCell>
        <mxCell id="5bcC0TVyVtwMOTV-ohNZ-24" value="" style="endArrow=none;html=1;rounded=0;entryX=-0.022;entryY=0.501;entryDx=0;entryDy=0;entryPerimeter=0;exitX=1;exitY=0.3333333333333333;exitDx=0;exitDy=0;exitPerimeter=0;" parent="1" source="5bcC0TVyVtwMOTV-ohNZ-1" target="5bcC0TVyVtwMOTV-ohNZ-21" edge="1">
          <mxGeometry width="50" height="50" relative="1" as="geometry">
            <mxPoint x="80" y="140" as="sourcePoint" />
            <mxPoint x="190" y="410" as="targetPoint" />
          </mxGeometry>
        </mxCell>
        <mxCell id="5bcC0TVyVtwMOTV-ohNZ-28" value="" style="endArrow=none;html=1;rounded=0;exitX=0.981;exitY=0.556;exitDx=0;exitDy=0;exitPerimeter=0;entryX=-0.01;entryY=0.532;entryDx=0;entryDy=0;entryPerimeter=0;" parent="1" source="5bcC0TVyVtwMOTV-ohNZ-18" target="5bcC0TVyVtwMOTV-ohNZ-19" edge="1">
          <mxGeometry width="50" height="50" relative="1" as="geometry">
            <mxPoint x="370" y="400" as="sourcePoint" />
            <mxPoint x="530" y="503.99999999999994" as="targetPoint" />
          </mxGeometry>
        </mxCell>
        <mxCell id="5bcC0TVyVtwMOTV-ohNZ-31" value="" style="endArrow=none;html=1;rounded=0;exitX=1.01;exitY=0.513;exitDx=0;exitDy=0;exitPerimeter=0;" parent="1" source="5bcC0TVyVtwMOTV-ohNZ-7" edge="1">
          <mxGeometry width="50" height="50" relative="1" as="geometry">
            <mxPoint x="360" y="380" as="sourcePoint" />
            <mxPoint x="350" y="211" as="targetPoint" />
          </mxGeometry>
        </mxCell>
        <mxCell id="5bcC0TVyVtwMOTV-ohNZ-32" value="Check&lt;div&gt;Availability&lt;/div&gt;" style="ellipse;shape=umlControl;whiteSpace=wrap;html=1;" parent="1" vertex="1">
          <mxGeometry x="350" y="156" width="90" height="98" as="geometry" />
        </mxCell>
        <mxCell id="5bcC0TVyVtwMOTV-ohNZ-36" value="Error&lt;div&gt;message&lt;/div&gt;" style="ellipse;shape=umlControl;whiteSpace=wrap;html=1;strokeColor=light-dark(#FF3333,#FF3333);fontColor=light-dark(#000000,#FF3333);" parent="1" vertex="1">
          <mxGeometry x="260" y="290" width="70" height="80" as="geometry" />
        </mxCell>
        <mxCell id="5bcC0TVyVtwMOTV-ohNZ-37" value="" style="endArrow=none;rounded=0;entryX=0.329;entryY=0.975;entryDx=0;entryDy=0;entryPerimeter=0;exitX=0.757;exitY=0.175;exitDx=0;exitDy=0;exitPerimeter=0;strokeColor=light-dark(#FF3333,#FF3333);textShadow=1;labelBackgroundColor=default;fontColor=light-dark(#FF3333,#FF3333);" parent="1" source="5bcC0TVyVtwMOTV-ohNZ-36" target="5bcC0TVyVtwMOTV-ohNZ-32" edge="1">
          <mxGeometry width="50" height="50" relative="1" as="geometry">
            <mxPoint x="340" y="390" as="sourcePoint" />
            <mxPoint x="390" y="340" as="targetPoint" />
          </mxGeometry>
        </mxCell>
        <mxCell id="5bcC0TVyVtwMOTV-ohNZ-38" value="Correct" style="text;html=1;align=center;verticalAlign=middle;resizable=0;points=[];autosize=1;strokeColor=none;fillColor=none;" parent="1" vertex="1">
          <mxGeometry x="460" y="190" width="60" height="30" as="geometry" />
        </mxCell>
        <mxCell id="5bcC0TVyVtwMOTV-ohNZ-40" value="&lt;font style=&quot;&quot;&gt;Wrong&lt;/font&gt;" style="text;html=1;align=center;verticalAlign=middle;resizable=0;points=[];autosize=1;strokeColor=none;fillColor=none;fontColor=light-dark(#FF3333,#FF3333);labelBackgroundColor=default;" parent="1" vertex="1">
          <mxGeometry x="340" y="280" width="60" height="30" as="geometry" />
        </mxCell>
        <mxCell id="5bcC0TVyVtwMOTV-ohNZ-41" value="Check points" style="ellipse;shape=umlControl;whiteSpace=wrap;html=1;" parent="1" vertex="1">
          <mxGeometry x="530" y="170" width="70" height="80" as="geometry" />
        </mxCell>
        <mxCell id="5bcC0TVyVtwMOTV-ohNZ-42" value="" style="endArrow=none;html=1;rounded=0;exitX=1.022;exitY=0.592;exitDx=0;exitDy=0;exitPerimeter=0;entryX=0;entryY=0.55;entryDx=0;entryDy=0;entryPerimeter=0;" parent="1" source="5bcC0TVyVtwMOTV-ohNZ-32" target="5bcC0TVyVtwMOTV-ohNZ-41" edge="1">
          <mxGeometry width="50" height="50" relative="1" as="geometry">
            <mxPoint x="500" y="350" as="sourcePoint" />
            <mxPoint x="550" y="300" as="targetPoint" />
          </mxGeometry>
        </mxCell>
        <mxCell id="5bcC0TVyVtwMOTV-ohNZ-43" value="" style="endArrow=none;html=1;rounded=0;entryX=0.486;entryY=1;entryDx=0;entryDy=0;entryPerimeter=0;" parent="1" target="5bcC0TVyVtwMOTV-ohNZ-41" edge="1">
          <mxGeometry width="50" height="50" relative="1" as="geometry">
            <mxPoint x="564" y="310" as="sourcePoint" />
            <mxPoint x="620" y="310" as="targetPoint" />
          </mxGeometry>
        </mxCell>
        <mxCell id="5bcC0TVyVtwMOTV-ohNZ-45" value="" style="endArrow=none;html=1;rounded=0;entryX=0.465;entryY=1.004;entryDx=0;entryDy=0;entryPerimeter=0;exitX=0.505;exitY=0.129;exitDx=0;exitDy=0;exitPerimeter=0;" parent="1" source="5bcC0TVyVtwMOTV-ohNZ-19" target="5bcC0TVyVtwMOTV-ohNZ-14" edge="1">
          <mxGeometry width="50" height="50" relative="1" as="geometry">
            <mxPoint x="562.33" y="499.68" as="sourcePoint" />
            <mxPoint x="562.5" y="439.99999999999994" as="targetPoint" />
          </mxGeometry>
        </mxCell>
        <mxCell id="5bcC0TVyVtwMOTV-ohNZ-46" value="Correct" style="text;html=1;align=center;verticalAlign=middle;resizable=0;points=[];autosize=1;strokeColor=none;fillColor=none;" parent="1" vertex="1">
          <mxGeometry x="570" y="260" width="60" height="30" as="geometry" />
        </mxCell>
        <mxCell id="5bcC0TVyVtwMOTV-ohNZ-48" value="" style="endArrow=none;html=1;rounded=0;entryX=0;entryY=0.5;entryDx=0;entryDy=0;exitX=1.005;exitY=0.515;exitDx=0;exitDy=0;exitPerimeter=0;" parent="1" source="5bcC0TVyVtwMOTV-ohNZ-14" target="5bcC0TVyVtwMOTV-ohNZ-16" edge="1">
          <mxGeometry width="50" height="50" relative="1" as="geometry">
            <mxPoint x="620" y="380" as="sourcePoint" />
            <mxPoint x="670" y="330" as="targetPoint" />
          </mxGeometry>
        </mxCell>
        <mxCell id="5bcC0TVyVtwMOTV-ohNZ-50" value="Error&lt;div&gt;message&lt;/div&gt;" style="ellipse;shape=umlControl;whiteSpace=wrap;html=1;strokeColor=light-dark(#FF3333,#FF3333);" parent="1" vertex="1">
          <mxGeometry x="400" y="320" width="70" height="80" as="geometry" />
        </mxCell>
        <mxCell id="5bcC0TVyVtwMOTV-ohNZ-51" value="&lt;font style=&quot;&quot;&gt;Wrong&lt;/font&gt;" style="text;html=1;align=center;verticalAlign=middle;resizable=0;points=[];autosize=1;strokeColor=none;fillColor=none;fontColor=light-dark(#FF3333,#FF3333);" parent="1" vertex="1">
          <mxGeometry x="440" y="270" width="60" height="30" as="geometry" />
        </mxCell>
        <mxCell id="5bcC0TVyVtwMOTV-ohNZ-52" value="" style="endArrow=none;html=1;rounded=0;entryX=0.113;entryY=0.889;entryDx=0;entryDy=0;entryPerimeter=0;exitX=0.844;exitY=0.242;exitDx=0;exitDy=0;exitPerimeter=0;strokeColor=light-dark(#FF3333,#FF3333);fontColor=light-dark(#FF3333,#FF3333);" parent="1" source="5bcC0TVyVtwMOTV-ohNZ-50" target="5bcC0TVyVtwMOTV-ohNZ-41" edge="1">
          <mxGeometry width="50" height="50" relative="1" as="geometry">
            <mxPoint x="328" y="294" as="sourcePoint" />
            <mxPoint x="403" y="256" as="targetPoint" />
          </mxGeometry>
        </mxCell>
        <mxCell id="bhaeH_KAVxia1MoYE9fJ-1" value="Display" style="ellipse;shape=umlControl;whiteSpace=wrap;html=1;" parent="1" vertex="1">
          <mxGeometry x="450" y="76" width="70" height="80" as="geometry" />
        </mxCell>
        <mxCell id="bhaeH_KAVxia1MoYE9fJ-2" value="" style="endArrow=none;html=1;rounded=0;exitX=1.029;exitY=0.55;exitDx=0;exitDy=0;exitPerimeter=0;entryX=0.071;entryY=0.813;entryDx=0;entryDy=0;entryPerimeter=0;" parent="1" source="bhaeH_KAVxia1MoYE9fJ-1" target="5bcC0TVyVtwMOTV-ohNZ-5" edge="1">
          <mxGeometry width="50" height="50" relative="1" as="geometry">
            <mxPoint x="296" y="201" as="sourcePoint" />
            <mxPoint x="462" y="144" as="targetPoint" />
          </mxGeometry>
        </mxCell>
        <mxCell id="bhaeH_KAVxia1MoYE9fJ-3" value="" style="endArrow=none;html=1;rounded=0;exitX=0.5;exitY=0;exitDx=0;exitDy=0;entryX=0.543;entryY=1;entryDx=0;entryDy=0;entryPerimeter=0;" parent="1" source="5bcC0TVyVtwMOTV-ohNZ-16" target="5bcC0TVyVtwMOTV-ohNZ-5" edge="1">
          <mxGeometry width="50" height="50" relative="1" as="geometry">
            <mxPoint x="532" y="130" as="sourcePoint" />
            <mxPoint x="685" y="105" as="targetPoint" />
          </mxGeometry>
        </mxCell>
        <mxCell id="tQzW391qskt0vz_-C18M-1" value="Shared Space Management" style="ellipse;whiteSpace=wrap;html=1;" parent="1" vertex="1">
          <mxGeometry x="40" y="-80" width="120" height="80" as="geometry" />
        </mxCell>
      </root>
    </mxGraphModel>
  </diagram>
</mxfile>
